Patient4_TMGait_0pt7_02_left_34_EMG.mot
version=1
nRows=39
nColumns=33
inDegrees=no
endheader
time	1LAddLong	2LGlutMax	3LGlutMed	4LIliopsoas	5LSemiMemb	6LBicFemLong	7LRecFem	8LVastMed	9LVastLat	10LGasMed	11LTibAnt	12lTibPost	13LPeroneusLong	14LSol	15LExtDigLong	16LFlexDigLong	17RAddLong	18RGlutMax	19RGlutMed	20RIliopsoas	21RSemiMemb	22RBicFemLong	23RRecFem	24RVastMed	25RVastLat	26RGasMed	27RTibAnt	28RTibPost	29RPeroneusLong	30RSol	31RExtDigLong	32RFlexDigLong
40.093	0.018616	0.14481	-0.12817	0.006866	-0.00351	-0.01236	0.035095	0.011597	0.065613	-0.011597	0.11536	-0.008392	0.008698	-0.06424	0.16037	0.002594	0.048065	-0.20233	0.031281	0.018158	0.063324	0.099792	-0.014801	-0.12573	0.17273	-0.009003	0.10925	-0.005035	-0.40985	-0.24094	-0.000153	0.005798
40.094	0.019684	0.16937	-0.15137	-0.011139	0.014038	-0.023956	0.036011	0.002747	0.056458	-0.031738	0.02655	-0.014648	0.056763	-0.12375	-0.030518	-0.004883	0.026093	-0.099945	-0.096893	-0.030975	0.030365	0.14038	-0.13611	-0.12665	-0.38345	0.020447	0.032349	0.007324	0.38879	-0.26154	-0.003815	0.000916
40.095	0.016785	0.15564	-0.13367	-0.00824	0.027618	-0.023804	0.04776	0.000458	0.06424	-0.040894	-0.10178	-0.009003	0.071716	-0.075378	-0.057983	-0.010071	-0.007019	-0.081635	-0.46921	-0.077209	-0.068512	0.21881	-0.11612	-0.16388	-0.56046	0.030212	-0.054626	0.082855	0.70511	-0.29923	0.00061	-0.012817
40.096	0.014038	0.15579	-0.02121	0.006866	0.003815	-0.021667	0.04776	0.003204	0.058136	-0.040741	-0.022125	-0.011902	0.004578	-0.080872	-0.02594	-0.00824	-0.03006	-0.024872	-0.72784	-0.051575	-0.27954	0.11581	-0.068817	-0.18906	-0.28397	0.02655	-0.029907	-0.078125	-0.62882	-0.17456	-0.003052	-0.011139
40.097	0.016937	0.12924	0.06485	0.01297	-0.005188	-0.025787	0.032806	0.004425	0.055847	-0.022583	-0.016479	-0.006409	0.018005	-0.084686	0.13733	-0.018921	-0.010986	0.028381	-0.78384	0.046844	-0.1178	-0.079041	0.050507	0.21133	-0.13351	0.016785	-0.032654	-0.29938	-1.041	-0.032501	-0.004425	-0.007782
40.098	0.011902	0.089264	0.11856	-0.010376	-0.006104	-0.029907	0.063477	0.008392	0.057678	-0.032654	-0.059509	-0.009613	0.054016	-0.10971	0.26199	0.002594	-0.007782	0.030823	0.49057	0.17014	-0.017548	-0.093536	0.054016	0.36941	-0.050812	-0.002136	-0.053253	-0.23743	-0.51437	-0.067596	0	-0.009003
40.099	0.016327	0.033417	0.071259	0.001526	-0.008545	-0.027161	0.051727	0.013428	0.039978	-0.023956	-0.033569	-0.005035	0.039978	-0.12848	0.37094	0.008087	-0.020142	-0.038757	1.178	0.1886	-0.095978	-0.1033	0.07843	0.35126	-0.014954	-0.013428	-0.031128	-0.17288	-0.051575	-0.41779	0.002594	-0.014954
40.1	0.016174	0.025787	0.063477	0.016174	-0.012054	-0.02594	0.045929	0.003662	0.045013	-0.047607	0.037231	-0.004883	0.074005	-0.059204	-0.013275	0.008698	-0.007172	-0.16602	0.66956	0.22278	-0.042725	-0.080566	0.23972	0.18341	-0.077667	-0.045929	-0.067749	0.21561	0.30426	-0.43259	0.001373	-0.021973
40.101	0.010834	0.049591	0.024414	0.019226	-0.010834	-0.026398	0.040436	0.002289	0.043793	-0.031891	0.053864	-0.009918	0.067444	-0.029297	-0.39627	0.005035	-0.009155	-0.08194	1.2268	0.23865	-0.025635	-0.011444	0.19363	0.15213	-0.08316	-0.035858	-0.049286	0.36545	-0.33951	-0.5368	0.001221	-0.00885
40.102	0.019531	0.017548	0.001068	0.017548	-0.012207	-0.035095	0.034943	-0.001831	0.032654	-0.012665	0.031738	-0.009918	0.04425	-0.047302	-0.38895	0.003204	0.002899	-0.25879	0.68756	0.084991	-0.045776	0.063782	0.19531	0.051422	-0.11139	-0.041656	-0.046387	0.12543	0.14511	-0.12512	-0.003357	-0.014954
40.103	0.015564	0.01236	-0.001678	0.025024	-0.016174	-0.03952	0.041656	0.003967	0.040283	0.018158	0.02121	-0.007477	0.034943	-0.059814	-0.30411	-0.00351	0.020142	-0.25055	0.43076	0.043793	-0.027618	0.041351	0.15976	-0.10468	-0.15045	-0.0354	-0.03418	0.045471	0.076904	0.43503	0.002136	-0.018158
40.104	0.00946	0.052032	0.017853	0.019836	-0.014038	-0.013428	0.036011	0.005341	0.034027	-0.013428	0.004578	-0.008392	0.078278	-0.069122	-0.007019	-0.002747	0.00885	-0.18524	0.67078	0.028839	0.000458	0.031586	0.11292	0.001526	0.019531	-0.035248	0.007019	0.06958	-0.5513	0.67978	0.001221	-0.013733
40.105	0.01236	0.063782	0.008545	0.006104	-0.016022	-0.001373	0.039673	-0.006256	0.037079	-0.031891	-0.097504	-0.006866	0.092926	-0.04425	0.45044	0.009918	0.004272	-0.17609	0.1445	0.002441	-0.082245	0.019684	0.066833	0.054626	0.36163	-0.027771	0.1796	0.020752	-0.73593	0.37277	-0.004883	-0.015411
40.106	0.016174	0.062866	-0.02655	0.003357	-0.021973	-0.018768	0.033722	0.003204	0.027466	-0.006104	0.027313	-0.011444	0.020905	-0.010834	0.19791	0.009155	-0.019073	-0.25116	0.24643	-0.052795	-0.20935	0.090942	0.112	-0.11307	0.61096	-0.012817	0.17944	0.008698	0.54489	0.20065	-0.002441	-0.007477
40.107	0.008087	0.089111	-0.04425	-0.000916	-0.034943	-0.019684	0.031433	0.000763	0.029449	-0.014343	0.1236	-0.003815	0.000153	0.006256	0.016937	-0.003052	-0.025787	-0.19623	-0.22553	-0.053711	-0.13809	0.14343	0.081329	-0.25146	0.93216	0.00351	-0.009003	0.004425	1.899	0.019226	-0.002136	-0.00061
40.108	0.01236	0.063934	-0.05722	-0.005035	-0.05661	-0.041351	0.023804	0.003357	0.020752	-0.029602	0.14648	-0.00412	0.057678	0.04303	-0.18616	-0.019531	-0.007629	-0.14526	-0.42648	-0.051422	0.074921	0.062714	-0.24368	-0.22644	0.78644	0.003967	0.022125	-0.005493	1.4078	-0.022736	-0.00061	0.001221
40.109	0.015564	0.037231	-0.041199	0.00946	-0.025024	-0.039978	0.014191	0.005798	0.022888	-0.049286	-0.13489	-0.012665	0.067902	0.043488	-0.031433	-0.009918	0.007477	-0.16541	-0.33127	-0.063324	0.11353	0.017395	-0.40009	-0.12314	0.59448	-0.007324	0.19989	-0.014954	-1.3049	-0.14145	-0.007477	-0.00824
40.11	0.011902	0.014801	-0.032349	0.003815	-0.011902	-0.04776	0.024719	0.003815	0.029755	-0.023499	-0.10468	-0.007629	0.059509	-0.007324	-0.10223	-0.010071	0.015411	-0.17944	0.018463	-0.092926	-0.039063	0.034332	-0.31143	-0.084229	0.39566	0.002747	-0.18936	-0.016022	-1.3499	-0.17929	-0.002594	-0.005646
40.111	0.009613	0.024109	-0.025635	0.001068	0.020905	-0.036011	0.008392	0.003662	0.022278	-0.02533	-0.021667	-0.006561	0.046539	0.003967	-0.12634	0.005798	0.022583	-0.19791	0.077515	-0.067444	-0.15869	0.042572	-0.050964	0.10452	0.078583	-0.007172	-0.40832	-0.018005	-1.2679	-0.12253	-0.000305	-0.018005
40.112	0.008698	0.007324	-0.10544	0.020599	0.011597	0.010834	0.018768	0.003815	0.024109	-0.024719	0.007782	-0.011902	0.067139	-0.052948	-0.11658	-0.002747	0.009155	-0.24826	-0.099792	0.014038	-0.10986	0.019836	0.18982	0.18997	-0.60821	0.009613	-0.50751	-0.023804	0.64941	-0.24536	-0.001068	-0.007935
40.113	0.002747	-0.008545	-0.12817	0.007324	0.009766	0.051575	0.018311	0.006104	0.014954	-0.017395	0.002441	-0.00061	0.046844	-0.10986	-0.065002	-0.00351	0.01709	-0.27802	-0.079041	0.032043	-0.067749	-0.004272	0.29022	0.16647	-0.87891	0.012054	-0.63202	-0.021515	0.87494	-0.20828	-0.004578	-0.015106
40.114	-0.000153	-0.008545	-0.045776	0.001526	-0.041809	0.051117	0.036926	0.006866	0.036774	-0.036011	0.020905	-0.012665	0.073853	-0.10132	-0.052185	0.012512	0.009155	-0.23117	-0.065765	-0.03479	0.017395	-0.052643	0.15411	0.17029	-0.86639	-0.002441	-0.20172	-0.020905	0.50064	0.037537	0.000458	-0.011597
40.115	-0.001678	-0.021515	0.076599	0.000305	-0.079956	-0.027618	0.026855	0.007629	0.03006	-0.024261	-0.042419	-0.011444	0.075989	-0.11261	0.050659	-0.006104	0.011292	-0.11185	-0.015411	-0.055542	0.09903	-0.079956	0.092468	0.052795	-0.49255	-0.000916	0.31204	-0.024872	0.093842	0.042725	-0.003052	-0.018768
40.116	0.014648	-0.085144	0.054169	0.004425	-0.072327	-0.10696	0.014038	-0.000153	0.035706	-0.003815	-0.013885	-0.009918	0.057373	-0.093536	0.15442	-0.003967	0.000763	-0.1413	-0.21301	-0.08194	0.076447	-0.077972	-0.04776	0.053711	-0.16617	-0.004425	0.27115	-0.015106	-0.31967	-0.007172	-0.003052	-0.015564
40.117	0.028687	-0.079346	0.025635	0.002594	-0.033569	-0.10757	-0.002441	0	0.029297	-0.015717	-0.000305	-0.019836	0.072784	-0.068512	0.16037	-0.018616	0.00473	-0.17197	-0.067596	-0.025635	0.042725	0.015411	-0.13519	0.027466	-0.13809	-0.003967	0.12085	-0.019379	-0.58014	0.001526	-0.001831	-0.01297
40.118	0.031891	-0.069733	-0.025024	0.011749	-0.045166	-0.069275	-0.005798	-0.003204	0.028534	-0.024872	-0.013428	0.002441	0.080719	-0.10605	0.15396	-0.021667	0.012665	-0.10666	0.043793	0.039215	0.012512	0.094452	-0.092773	-0.070343	-0.079498	-0.00473	-0.022736	-0.022583	-0.16464	0.046539	-0.005798	-0.02182
40.119	0.016327	-0.038605	-0.056458	0	0.014801	-0.061493	0.003815	0.000305	0.036469	-0.032043	0.015869	-0.006866	0.090179	-0.1326	0.092926	-0.003815	0.011902	-0.12024	-0.22644	0.077972	-0.039063	0.059662	-0.026093	-0.013123	-0.03952	0	-0.002441	-0.020447	-0.10376	0.041046	0.000153	-0.018921
40.12	0.016632	-0.030823	-0.078278	0.007782	0.052185	-0.048981	0.007782	-0.00473	0.024719	-0.038757	0.017548	-0.006256	0.067291	-0.087433	0.028229	0.002747	0.015106	-0.063782	-0.21225	0.079193	-0.16113	-0.018311	0.014648	-0.00351	-0.035095	0.001678	0.15228	-0.016327	0.11765	0.056915	0.001373	-0.018005
40.121	0.009155	-0.048218	-0.085449	0.004272	0.029602	-0.052185	-0.005646	0.006866	0.028229	-0.02121	-0.03418	-0.007172	0.068054	-0.08194	-0.057983	-0.016022	0.020599	-0.06546	0.25574	0.043945	-0.040741	-0.08255	0.031586	-0.006104	-0.040588	0.016479	0.10635	-0.011749	0.11139	0.049438	0.000916	-0.007477
40.122	0.004883	-0.049133	-0.071564	-0.005798	0.006714	-0.00946	0.006256	0.002136	0.016174	-0.021057	-0.037994	-0.003662	0.06012	-0.086517	-0.10651	0.000458	0.007172	-0.057831	0.39536	0.024414	0.095062	-0.081329	-0.009918	0.012665	0.001831	0.031128	-0.075531	-0.01358	0.12009	-0.035706	-0.000458	-0.013123
40.123	0.003052	-0.025024	-0.054321	0	-0.021057	0.010834	0.008698	0.002136	0.014954	-0.01297	0.007782	-0.005646	0.059509	-0.094147	-0.097198	0.000153	0.009613	-0.069885	-0.27008	0.014191	0.064392	-0.04303	-0.031586	0.020599	0.031281	0.038605	-0.096893	-0.004272	0.016632	-0.07843	0.005188	-0.010834
40.124	-0.005798	-0.092316	-0.11093	-0.003662	-0.045929	0.003815	0.020447	-0.006104	0.013885	-0.001984	0.036011	-0.008545	0.065002	-0.08606	-0.035858	-0.000153	0.024109	-0.14771	-0.50323	0.059204	0.027313	-0.024872	0.00412	0.011902	0.062561	0.034943	0.048676	-0.021667	-0.17853	-0.1767	0.000153	-0.018463
40.125	0.008087	-0.11597	-0.10483	-0.003052	-0.059967	0.006866	-0.010376	0.001373	0.012512	-0.015869	0.041199	-0.002747	0.070496	-0.10712	0.010986	-0.000458	0.028076	-0.14679	-0.20371	0.066986	0.006561	-0.039063	0.040894	-0.059967	0.050201	0.037994	0.037842	-0.022278	0.10925	-0.24643	-0.001678	-0.02655
40.126	0.020752	-0.11505	-0.048218	0.002136	-0.016632	-0.054932	-0.007172	0.000153	0.014343	-0.032043	0.027618	-0.001068	0.079498	-0.059204	-0.00351	0.000153	0.034943	-0.043335	0.47852	0.041809	-0.06958	-0.025177	0.047455	-0.077667	0.048981	0.012512	0.029144	-0.032349	0.28091	-0.12054	-0.001068	-0.014191
40.127	0.007629	-0.077515	0.010834	-0.004883	0.029449	-0.058746	-0.001373	0.006714	0.000916	-0.035095	0.019989	-0.005035	0.096283	-0.052185	0.015564	-0.006409	0.033569	-0.01297	-0.11978	0.052948	-0.041962	0.006866	0.10147	-0.12161	0.019226	-0.024261	0.046234	-0.021515	0.028992	0.24399	-0.006714	-0.023041
40.128	0.022278	-0.045776	0.019989	0.009155	0.019684	-0.006256	-0.007172	0.005798	0.001984	-0.033569	0.043182	-0.010376	0.074615	-0.067596	0.01709	-0.001526	0.003357	-0.092468	-0.14374	0.031891	-0.17425	-0.017395	0.11185	-0.067596	0.010834	-0.032349	0.03418	0.07431	0.083618	0.43793	0.000153	-0.028687
40.129	0.015411	-0.041656	-0.005035	0.010071	0.000305	-0.021667	-0.019531	0.001221	0.011292	-0.037537	-0.021973	-0.006256	0.086823	-0.054321	0.018005	-0.006409	-0.007019	-0.078583	0.072479	0.027161	-0.23727	-0.018311	0.056763	-0.095215	-0.001678	-0.033569	-0.001068	0.032654	0.08255	0.35156	-0.00061	-0.025787
40.13	0.009918	-0.068512	-0.015717	0.007782	0.000916	-0.02594	-0.015869	0.006409	0.018311	-0.027161	-0.033875	-0.00885	0.077972	-0.050507	0.011292	-0.016022	0.012512	-0.11078	-0.10101	0.019226	-0.23239	-0.00061	0.021973	-0.224	-0.006866	-0.035706	-0.020599	0.002594	0.040283	-0.2536	-0.004578	-0.016785
40.131	0.00885	-0.062866	-0.011749	0.011139	0.000458	-0.012207	-0.019379	-0.000458	0.019836	-0.027771	-0.019836	-0.004425	0.089569	-0.066681	0.018616	-0.004578	0.009308	-0.077209	-0.004425	0.004425	0.11597	0.14664	0.047455	-0.17471	0.002441	-0.048676	0.022583	-0.10651	-0.11887	-0.29053	0.00061	-0.024109
